<svg width="500" height="500" viewBox="0 0 500 500" fill="none" xmlns="http://www.w3.org/2000/svg">
  <rect width="500" height="500" rx="100" fill="#09090B" />
  <path fill-rule="evenodd" clip-rule="evenodd"
    d="M162.612 133.125C151.949 133.125 142.474 135.956 134.44 141.458C126.599 146.828 121.083 154.085 117.054 161.53C109.514 175.46 105.661 193.182 102.459 207.909L102.23 208.961C98.6681 225.329 95.7198 238.363 90.8153 247.577C88.5297 251.871 86.288 254.36 84.2236 255.797C82.3669 257.089 79.809 258.135 75.5628 258.135C66.2121 258.135 58.6319 265.715 58.6319 275.066C58.6319 284.416 66.2121 291.997 75.5628 291.997C86.1736 291.997 95.5955 289.136 103.564 283.592C111.325 278.192 116.753 270.914 120.706 263.488C128.021 249.745 131.816 232.277 134.986 217.687C135.045 217.415 135.104 217.143 135.162 216.873C135.214 216.635 135.266 216.397 135.317 216.161C138.87 199.837 141.868 186.823 146.834 177.647C149.147 173.372 151.432 170.863 153.574 169.396C155.521 168.062 158.209 166.986 162.612 166.986C164.692 166.986 166.391 167.573 168.632 170.048C171.344 173.044 174.299 178.368 177.118 186.808C182.791 203.792 185.987 227.091 189.464 252.769L189.561 253.489C192.862 277.862 196.466 304.48 203.432 324.995C206.969 335.411 211.85 345.785 219.187 353.766C226.993 362.256 237.497 367.87 250.499 367.87C263.501 367.87 274.005 362.256 281.811 353.766C289.148 345.785 294.029 335.411 297.566 324.995C304.532 304.48 308.136 277.862 311.436 253.489L311.534 252.769C315.011 227.091 318.207 203.792 323.88 186.808C326.699 178.368 329.654 173.044 332.366 170.048C334.606 167.573 336.306 166.986 338.385 166.986C342.789 166.986 345.476 168.062 347.424 169.396C349.566 170.863 351.851 173.372 354.164 177.647C359.13 186.823 362.128 199.837 365.68 216.161C365.79 216.666 365.901 217.174 366.012 217.687C369.182 232.277 372.976 249.745 380.292 263.488C384.244 270.914 389.673 278.192 397.434 283.592C405.402 289.136 414.824 291.997 425.435 291.997C434.786 291.997 442.366 284.416 442.366 275.066C442.366 265.715 434.786 258.135 425.435 258.135C421.189 258.135 418.631 257.089 416.774 255.797C414.71 254.36 412.468 251.871 410.183 247.577C405.278 238.363 402.33 225.329 398.768 208.961L398.539 207.909L398.539 207.909C395.337 193.182 391.484 175.46 383.944 161.53C379.915 154.085 374.399 146.828 366.558 141.458C358.524 135.956 349.049 133.125 338.385 133.125C325.399 133.125 314.962 138.816 307.26 147.326C300.028 155.316 295.234 165.686 291.763 176.08C285.004 196.314 281.457 222.522 278.194 246.631L277.978 248.225C274.504 273.879 271.257 297.159 265.502 314.107C262.644 322.524 259.645 327.844 256.882 330.849C254.588 333.344 252.772 334.008 250.499 334.008C248.225 334.008 246.41 333.344 244.115 330.849C241.353 327.844 238.354 322.524 235.496 314.107C229.74 297.159 226.493 273.879 223.019 248.225L222.804 246.631V246.631C219.541 222.522 215.994 196.314 209.235 176.08C205.764 165.686 200.97 155.316 193.738 147.326C186.036 138.816 175.599 133.125 162.612 133.125Z"
    fill="#FAFAFA" />
</svg>